<svg id="_2-icon" data-name="2-icon" xmlns="http://www.w3.org/2000/svg" width="86.19" height="87.91" viewBox="0 0 86.19 87.91">
  <defs>
    <style>
      .cls-1 {
        fill: #c3c2c2;
      }

      .cls-1, .cls-2 {
        fill-rule: evenodd;
      }

      .cls-2 {
        fill: #bc29bb;
      }
    </style>
  </defs>
  <path id="形状_3_拷贝_5" data-name="形状 3 拷贝 5" class="cls-1" d="M3047.31,1863.82a9.086,9.086,0,0,0-3.47-.99,4.722,4.722,0,0,0-.84.03l-20.28,2.67a4.5,4.5,0,1,0,1.17,8.92l14.04-1.84-27.63,11.51a3.778,3.778,0,0,0-.69.36c-0.05.03-5.33,3.26-11.02,1.34a78.225,78.225,0,0,0-8.69-2.5v-20.41c5.7,0.7,15.42,2.89,18.27,9.67,0.02,0.05.03,0.08,0.04,0.11a33.643,33.643,0,0,1-7.06-2.36,4.5,4.5,0,0,0-3.77,8.18,52.321,52.321,0,0,0,5.84,2.2,21.522,21.522,0,0,0,6.01,1.07,7.52,7.52,0,0,0,5.53-2.02c3.63-3.63,2.78-8.41,1.66-10.78-5.28-12.33-21.52-14.8-28.05-15.29a10.817,10.817,0,0,0-9.27-5.27h-9.47a4.5,4.5,0,0,0,0,9h9.47a1.834,1.834,0,0,1,1.8,1.81v24.91a1.834,1.834,0,0,1-1.8,1.81h-9.47a4.5,4.5,0,0,0,0,9h9.47a10.762,10.762,0,0,0,7.51-3.05,48.627,48.627,0,0,1,9.09,2.45,20.694,20.694,0,0,0,6.66,1.08,24.428,24.428,0,0,0,11.7-3.12l30.89-12.87a1.009,1.009,0,0,1,.15-0.07,13.241,13.241,0,0,0,2.9-1.93,9.106,9.106,0,0,0,3.32-6.88,7.4,7.4,0,0,0-4.01-6.74h0Z" transform="translate(-2965.12 -1807.53)"/>
  <path id="形状_3_拷贝_3" data-name="形状 3 拷贝 3" class="cls-2" d="M3022.61,1828.68h-9.05v-4.21h12.35a4.505,4.505,0,0,0,0-9.01h-3.93v-3.43a4.5,4.5,0,0,0-9,0v3.43h-0.62a7.819,7.819,0,0,0-7.8,7.81v6.61a7.81,7.81,0,0,0,7.8,7.8h9.05v4.22h-12.35a4.5,4.5,0,0,0,0,9h3.92v3.43a4.5,4.5,0,0,0,9,0v-3.43h0.63a7.81,7.81,0,0,0,7.8-7.8v-6.61a7.812,7.812,0,0,0-7.8-7.81h0Z" transform="translate(-2965.12 -1807.53)"/>
</svg>
