<svg id="_3-icon" data-name="3-icon" xmlns="http://www.w3.org/2000/svg" width="86.62" height="75.68" viewBox="0 0 86.62 75.68">
  <defs>
    <style>
      .cls-1 {
        fill: #c3c2c2;
      }

      .cls-1, .cls-2 {
        fill-rule: evenodd;
      }

      .cls-2 {
        fill: #3a60ff;
      }
    </style>
  </defs>
  <path id="形状_957" data-name="形状 957" class="cls-1" d="M3399.18,1841.82h-4.27a8.6,8.6,0,0,0-8.59,8.59v7.13a4.2,4.2,0,0,0,2.9,3.98l0.24,5.49,0.01,0.07a4.342,4.342,0,0,0,4.3,3.89h6.56a4.411,4.411,0,0,0,4.3-4.04l0.37-5.6a4.185,4.185,0,0,0,2.77-3.93v-6.99A8.6,8.6,0,0,0,3399.18,1841.82Zm1.83,13.44-0.05.02a3.39,3.39,0,0,0-2.66,3.21l-0.35,5.58h-1.53l-0.34-5.58a3.312,3.312,0,0,0-2.71-3.23v-4.85a1.614,1.614,0,0,1,1.68-1.69h4.28a1.614,1.614,0,0,1,1.68,1.69v4.85Zm-3.82-14.09a8.59,8.59,0,1,0-8.59-8.59A8.593,8.593,0,0,0,3397.19,1841.17Zm0-11.66a3.12,3.12,0,0,1,3.07,3.07A3.07,3.07,0,1,1,3397.19,1829.51Zm54.81,12.31h-4.28a8.593,8.593,0,0,0-8.58,8.59v7.13a4.2,4.2,0,0,0,2.9,3.98l0.24,5.49v0.07a4.357,4.357,0,0,0,4.3,3.89h6.56a4.4,4.4,0,0,0,4.3-4.04l0.38-5.6a4.185,4.185,0,0,0,2.77-3.93v-6.99A8.6,8.6,0,0,0,3452,1841.82Zm1.83,13.44-0.05.02a3.379,3.379,0,0,0-2.66,3.21l-0.35,5.58h-1.53l-0.35-5.58a3.292,3.292,0,0,0-2.71-3.23v-4.85a1.617,1.617,0,0,1,1.69-1.69h4.27a1.622,1.622,0,0,1,1.69,1.69v4.85Zm-3.82-14.09a8.59,8.59,0,1,0-8.59-8.59A8.593,8.593,0,0,0,3450.01,1841.17Zm0-11.66a3.111,3.111,0,0,1,3.06,3.07A3.065,3.065,0,1,1,3450.01,1829.51Zm15.24,35.4-0.03-.08-0.04-.07a3.7,3.7,0,0,0-4.6-1.63l-0.1.04-0.09.05a3.71,3.71,0,0,0-1.63,4.61,9.055,9.055,0,0,1,.67,3.14c0,4.14-3.79,8.33-10.38,11.5-7.01,3.37-16.2,5.23-25.88,5.23s-18.87-1.86-25.87-5.23c-6.6-3.17-10.38-7.36-10.38-11.5a8.14,8.14,0,0,1,1.05-3.74,3.4,3.4,0,0,0,.26-2.67,3.624,3.624,0,0,0-1.67-2.09,3.372,3.372,0,0,0-2.71-.28,3.624,3.624,0,0,0-2.09,1.67l-0.03.07a15.576,15.576,0,0,0-1.79,7.04c0,6.62,4.57,12.72,12.88,17.17,8.05,4.32,18.88,6.69,30.5,6.69a73.805,73.805,0,0,0,22.42-3.3c6.57-2.13,11.96-5.19,15.59-8.86,3.47-3.51,5.27-7.56,5.23-11.7A15.486,15.486,0,0,0,3465.25,1864.91Z" transform="translate(-3379.94 -1819.16)"/>
  <path id="形状_957_拷贝" data-name="形状 957 拷贝" class="cls-2" d="M3423.6,1841.48a11.155,11.155,0,1,0-11.16-11.16A11.175,11.175,0,0,0,3423.6,1841.48Zm0-15.41a4.25,4.25,0,0,1,0,8.5A4.25,4.25,0,0,1,3423.6,1826.07Zm3.13,15.89h-6.56a11.169,11.169,0,0,0-11.15,11.16v10.55a4.681,4.681,0,0,0,3.79,4.57l0.56,0.11,0.65,9.39v0.02a4.83,4.83,0,0,0,4.73,4.34h9.69a4.552,4.552,0,0,0,3.37-1.44,4.065,4.065,0,0,0,1.09-3.01l0.63-9.3,0.57-.11a4.672,4.672,0,0,0,3.78-4.57v-10.55A11.169,11.169,0,0,0,3426.73,1841.96Zm4.4,19.9-1.41.25-0.07.02a3.39,3.39,0,0,0-2.66,3.21l-0.63,9.86h-5.53l-0.63-9.86a3.285,3.285,0,0,0-2.81-3.25l-1.32-.23v-8.74a4.353,4.353,0,0,1,4.25-4.25h6.56a4.36,4.36,0,0,1,4.25,4.25v8.74Z" transform="translate(-3379.94 -1819.16)"/>
</svg>
